<svg width="102" height="48" viewBox="0 0 102 48" fill="none" xmlns="http://www.w3.org/2000/svg">
<path d="M80.8907 5.85295C71.3116 4.07868 61.7096 2.85457 51.8935 2.31607C45.6338 1.97267 39.3399 1.77875 33.1011 2.43397C28.3167 2.93644 23.1594 3.42934 18.6564 4.93926C5.21694 9.44566 -4.65134 25.2075 7.5174 34.7227C14.4045 40.108 23.9503 42.4518 32.9933 44.1102C38.4216 45.1057 44.0774 46.0652 49.6658 45.9965C57.7521 45.8972 66.5784 45.245 74.3511 43.3439C79.8666 41.9948 85.063 39.2574 89.766 36.5943C92.9502 34.7912 96.1035 32.6134 97.8507 29.7121C101.645 23.4121 100.082 17.2939 95.7666 11.6888" stroke="white" stroke-width="3" stroke-linecap="round"/>
</svg>
